<svg width="44" height="44" viewBox="0 0 44 44" fill="none" xmlns="http://www.w3.org/2000/svg">
<g clip-path="url(#clip0_62_538)">
<path d="M22 44C34.1503 44 44 34.1503 44 22C44 9.84974 34.1503 0 22 0C9.84974 0 0 9.84974 0 22C0 34.1503 9.84974 44 22 44Z" fill="#0EA5E9"/>
<path d="M22 10C22 10 15 18 15 23C15 26.866 18.134 30 22 30C25.866 30 29 26.866 29 23C29 18 22 10 22 10Z" fill="white"/>
<path d="M18 23.9996C19 23.4996 20 23.9996 21 23.4996C22 22.9996 23 23.4996 24 22.9996C25 22.4996 26 22.9996 26 22.9996" stroke="#0EA5E9" stroke-width="1.5" stroke-linecap="round"/>
<path d="M18 26.4996C19 25.9996 20 26.4996 21 25.9996C22 25.4996 23 25.9996 24 25.4996C25 24.9996 26 25.4996 26 25.4996" stroke="#0EA5E9" stroke-width="1.5" stroke-linecap="round"/>
<path d="M22 19.5C22.8284 19.5 23.5 18.8284 23.5 18C23.5 17.1716 22.8284 16.5 22 16.5C21.1716 16.5 20.5 17.1716 20.5 18C20.5 18.8284 21.1716 19.5 22 19.5Z" fill="#0EA5E9"/>
<path d="M22 20V22" stroke="#0EA5E9" stroke-width="1.5" stroke-linecap="round"/>
</g>
<defs>
<clipPath id="clip0_62_538">
<rect width="44" height="44" fill="white"/>
</clipPath>
</defs>
</svg>
